<svg width="98" height="39" viewBox="0 0 98 39" fill="none" xmlns="http://www.w3.org/2000/svg">
<g id="black_logo-white_bg 1" clip-path="url(#clip0_9_96)">
<g id="Clip path group">
<mask id="mask0_9_96" style="mask-type:luminance" maskUnits="userSpaceOnUse" x="0" y="0" width="98" height="39">
<g id="clip0_2525_303">
<path id="Vector" d="M97.0564 0H0.158203V38.6643H97.0564V0Z" fill="white"/>
</g>
</mask>
<g mask="url(#mask0_9_96)">
<g id="Group">
<path id="Vector_2" fill-rule="evenodd" clip-rule="evenodd" d="M6.5117 35.3337C5.31334 35.3337 4.70285 34.7436 4.70285 33.7736C4.70285 31.9648 6.71972 31.3565 10.3985 30.9654C10.3985 33.3757 8.76825 35.3337 6.5004 35.3337H6.5117ZM8.09445 21.7786C5.46483 21.7786 2.44177 23.0154 0.800231 24.3246L2.29932 27.4901C3.61527 26.2849 5.74294 25.2539 7.66259 25.2539C9.48728 25.2539 10.4957 25.8644 10.4957 27.0944C10.4957 27.9197 9.8287 28.338 8.56702 28.503C3.85042 29.1135 0.153564 30.4159 0.153564 34.0495C0.153564 36.9301 2.20436 38.6734 5.4083 38.6734C7.69651 38.6734 9.73147 37.4026 10.6992 35.734V38.2211H14.9636V27.7999C14.9636 23.5038 11.9812 21.7695 8.09672 21.7695L8.09445 21.7786Z" fill="#777777"/>
<path id="Vector_3" fill-rule="evenodd" clip-rule="evenodd" d="M50.8944 22.2472V38.2013H55.4573V30.5136C55.4573 26.862 57.6686 25.788 59.2084 25.788C59.9016 25.7825 60.5806 25.9833 61.1597 26.3645L61.994 22.1477C61.3473 21.8889 60.6552 21.7635 59.9591 21.7791C57.6143 21.7791 56.1401 22.8169 55.1678 24.9288V22.2472H50.8944Z" fill="#777777"/>
<path id="Vector_4" fill-rule="evenodd" clip-rule="evenodd" d="M83.1393 21.7788C80.7267 21.7788 78.9224 23.2033 77.9841 24.5781C77.1135 22.8031 75.2708 21.7788 73.0549 21.7788C70.6446 21.7788 68.9737 23.1174 68.2027 24.6595V22.2469H63.8026V38.201H68.37V29.9865C68.37 27.0472 69.9143 25.6249 71.3546 25.6249C72.6592 25.6249 73.8576 26.4683 73.8576 28.6457V38.201H78.4159V29.9865C78.4159 27.0042 79.9218 25.6249 81.4299 25.6249C82.6373 25.6249 83.9171 26.5022 83.9171 28.6141V38.201H88.4754V27.1715C88.4754 23.5877 86.0629 21.7788 83.1483 21.7788" fill="#777777"/>
<path id="Vector_5" fill-rule="evenodd" clip-rule="evenodd" d="M39.7901 22.2468H35.6568V20.6256C35.6568 18.5137 36.862 17.9123 37.8998 17.9123C38.6084 17.9215 39.3051 18.0957 39.9348 18.421L41.3412 15.2035C41.3412 15.2035 39.9144 14.272 37.321 14.272C34.4065 14.272 31.0895 15.9158 31.0895 21.0733V22.2468H24.1819V20.6256C24.1819 18.5137 25.3848 17.9123 26.4249 17.9123C27.1346 17.9123 27.8335 18.087 28.4598 18.421L29.8662 15.2035C29.0274 14.7129 27.6775 14.272 25.8483 14.272C22.9338 14.272 19.6168 15.9158 19.6168 21.0733V22.2468H16.9758V25.765H19.6235V38.2009H24.1819V25.765H31.0985V38.2009H35.6568V25.765H39.7901V22.2468Z" fill="#777777"/>
<path id="Vector_6" d="M47.0663 22.2466H42.5125V38.1939H47.0663V22.2466Z" fill="#777777"/>
<path id="Vector_7" fill-rule="evenodd" clip-rule="evenodd" d="M42.6798 19.536H47.1409C49.7434 11.3532 58.5729 4.16073 69.0733 4.16073C81.8438 4.16073 92.8801 13.8833 92.8801 29.019C92.919 32.1257 92.4921 35.2209 91.6139 38.2012H95.9439L95.9869 38.0519C96.7165 35.1015 97.0765 32.0719 97.0586 29.0325C97.0586 12.1536 84.7584 0.00488281 69.0823 0.00488281C56.7685 0.00488281 45.7933 8.55173 42.6821 19.5405L42.6798 19.536Z" fill="#777777"/>
</g>
</g>
</g>
</g>
<defs>
<clipPath id="clip0_9_96">
<rect width="97" height="38.6643" fill="white" transform="translate(0.158203)"/>
</clipPath>
</defs>
</svg>
