<svg width="190" height="36" viewBox="0 0 190 36" fill="none" xmlns="http://www.w3.org/2000/svg">
<g id="Afterpay_logo" clip-path="url(#clip0_9_87)">
<path id="Vector" d="M16.1094 17.1299C16.1094 13.9836 13.7328 11.7724 10.8135 11.7724C7.89415 11.7724 5.51754 14.0209 5.51754 17.1299C5.51754 20.2015 7.89415 22.4874 10.8135 22.4874C13.7357 22.4845 16.1094 20.2761 16.1094 17.1299ZM16.1511 26.4941V24.059C14.7108 25.7455 12.5668 26.7923 9.9994 26.7923C4.6647 26.7923 0.615234 22.6709 0.615234 17.1299C0.615234 11.6233 4.81977 7.43018 10.1187 7.43018C12.6116 7.43018 14.7139 8.47988 16.1541 10.1261V7.76573H20.9431V26.4941H16.1511Z" fill="#777777"/>
<path id="Vector_2" d="M44.2049 22.3354C42.529 22.3354 42.0638 21.7359 42.0638 20.1643V11.8498H45.1412V7.76572H42.0638V3.19694H37.1556V7.76572H30.8338V6.62711C30.8338 5.05256 31.4571 4.45313 33.1718 4.45313H34.2482V0.819336H31.8865C27.837 0.819336 25.9286 2.09274 25.9286 5.98754V7.76285H23.2031V11.8469H25.9286V26.4911H30.8369V11.8469H37.1585V21.0246C37.1585 24.8448 38.6764 26.4941 42.6483 26.4941H45.18V22.3354H44.2049Z" fill="#777777"/>
<path id="Vector_3" d="M61.807 15.4439C61.458 13.0089 59.3916 11.5491 56.9791 11.5491C54.5638 11.5491 52.5779 12.9716 52.0739 15.4439H61.807ZM52.0321 18.3664C52.384 21.137 54.4475 22.7115 57.0567 22.7115C59.1202 22.7115 60.7186 21.7736 61.6518 20.2765H66.6764C65.5075 24.2459 61.807 26.7927 56.9405 26.7927C51.06 26.7927 46.933 22.8233 46.933 17.1676C46.933 11.5118 51.2957 7.42773 57.0597 7.42773C62.8626 7.42773 67.0671 11.5492 67.0671 17.1676C67.0671 17.5806 67.0283 17.9908 66.9507 18.3664H52.0321Z" fill="#777777"/>
<path id="Vector_4" d="M98.2739 17.1299C98.2739 14.0954 95.8973 11.7724 92.9779 11.7724C90.0587 11.7724 87.682 14.0209 87.682 17.1299C87.682 20.2015 90.0587 22.4874 92.9779 22.4874C95.8973 22.4845 98.2739 20.1643 98.2739 17.1299ZM82.8513 7.76573H87.6402V10.2007C89.0805 8.477 91.2216 7.43018 93.792 7.43018C99.0492 7.43018 103.176 11.5888 103.176 17.0926C103.176 22.5992 98.9716 26.7951 93.6758 26.7951C91.2216 26.7951 89.1969 25.8573 87.7954 24.2857V34.2005H82.8513V7.76573Z" fill="#777777"/>
<path id="Vector_5" d="M120.438 17.1299C120.438 13.9836 118.065 11.7724 115.142 11.7724C112.223 11.7724 109.846 14.0209 109.846 17.1299C109.846 20.2015 112.223 22.4874 115.142 22.4874C118.065 22.4845 120.438 20.2761 120.438 17.1299ZM120.48 26.4941V24.059C119.04 25.7455 116.895 26.7923 114.328 26.7923C108.993 26.7923 104.944 22.6709 104.944 17.1299C104.944 11.6233 109.149 7.43018 114.445 7.43018C116.937 7.43018 119.04 8.47988 120.48 10.1261V7.76573H125.269V26.4941H120.48Z" fill="#777777"/>
<path id="Vector_6" d="M74.2184 9.60128C74.2184 9.60128 75.4381 7.43018 78.4229 7.43018C79.6992 7.43018 80.5253 7.85177 80.5253 7.85177V12.6299C80.5253 12.6299 78.7241 11.5601 77.0691 11.7752C75.4141 11.9904 74.3675 13.453 74.3735 15.409V26.4969H69.4294V7.7686H74.2184V9.60128Z" fill="#777777"/>
<path id="Vector_7" d="M147.636 7.76514L135.544 34.1396H130.446L135.193 23.9437L127.166 7.76514H132.945L137.641 18.5748L142.46 7.76514H147.636Z" fill="#777777"/>
<path id="Vector_8" d="M186.235 7.34132L174.248 0.687472C170.729 -1.26566 166.331 1.17504 166.331 5.08417V5.76677C166.331 6.3834 166.673 6.95413 167.228 7.26101L169.491 8.51721C170.156 8.8872 170.985 8.42544 170.985 7.68836V5.99048C170.985 5.14154 171.94 4.61095 172.703 5.03542L183.086 10.8002C183.85 11.2246 183.85 12.2858 183.086 12.7075L172.703 18.4722C171.94 18.8967 170.985 18.3661 170.985 17.5171V16.6136C170.985 12.7045 166.587 10.261 163.065 12.2169L151.078 18.8708C147.559 20.824 147.559 25.7111 151.078 27.6642L163.065 34.3181C166.583 36.2712 170.985 33.8305 170.985 29.9214V29.2388C170.985 28.6221 170.642 28.0542 170.088 27.7445L167.824 26.4854C167.16 26.1155 166.331 26.5772 166.331 27.3144V29.0123C166.331 29.8612 165.377 30.3917 164.612 29.9672L154.23 24.2025C153.467 23.778 153.467 22.7169 154.23 22.2924L164.612 16.5276C165.377 16.1031 166.331 16.6337 166.331 17.4827V18.3862C166.331 22.2953 170.729 24.7389 174.248 22.7829L186.235 16.129C189.754 14.1815 189.754 9.29445 186.235 7.34132Z" fill="#777777"/>
</g>
<defs>
<clipPath id="clip0_9_87">
<rect width="188.543" height="35.0331" fill="white" transform="translate(0.615234)"/>
</clipPath>
</defs>
</svg>
