<svg width="115" height="23" viewBox="0 0 115 23" fill="none" xmlns="http://www.w3.org/2000/svg">
<g id="humm-logo" clip-path="url(#clip0_9_82)">
<path id="Vector" d="M102.639 6.36089C100.211 6.36089 98.197 7.76041 97.3034 9.096C96.6649 7.28268 95.1308 6.36089 92.9261 6.36089C90.649 6.36089 88.7721 7.56193 87.9915 8.44671C87.6487 7.75367 87.1366 7.23727 86.488 6.88235C85.7582 6.45509 84.8392 6.24649 83.7697 6.24649C83.1803 6.24649 82.6143 6.3306 82.0837 6.47527C80.1882 6.82851 78.6627 7.98244 77.9161 9.096C77.2774 7.28268 75.7435 6.36089 73.5389 6.36089C71.1113 6.36089 69.1296 7.72843 68.4589 8.61996V6.7444H63.5393V22.1089H68.4589V12.1827C68.9707 11.5468 69.8964 10.6873 71.2058 10.6873C72.7077 10.6873 73.2516 11.5788 73.2516 12.7546V22.1072H78.1711V12.1827C78.5259 11.71 79.1476 11.1162 79.9923 10.8404C80.1544 10.7933 80.3234 10.7546 80.4992 10.7209C80.6443 10.6991 80.7948 10.6873 80.9519 10.6873C82.1311 10.6873 82.7341 11.2626 82.925 12.0969V22.1089H82.9961H87.8461H87.8852V12.1356C88.4038 11.5048 89.316 10.6873 90.5949 10.6873C92.0968 10.6873 92.6391 11.5788 92.6391 12.7546V22.1072H97.5586V12.1827C98.0384 11.5468 98.9962 10.6873 100.338 10.6873C101.807 10.6873 102.382 11.5788 102.382 12.7546V22.1072H107.271V10.9749C107.271 7.826 105.482 6.36089 102.639 6.36089ZM57.3055 22.1089H62.225V6.7444H57.3055V16.6689C56.7311 17.4006 55.7715 18.1643 54.366 18.1643C52.7678 18.1643 51.81 17.5285 51.81 15.6832V6.7444H46.8886V17.6883C46.8886 20.5193 48.4549 22.4925 51.9686 22.4925C54.5569 22.4925 56.3459 21.3469 57.3039 20.2653V22.1089H57.3055ZM40.829 13.1701C40.829 11.2929 39.8389 10.689 38.273 10.689C36.8352 10.689 35.8774 11.4846 35.3013 12.1844V22.1106H30.3817V0.890625H35.3013V8.62164C36.2288 7.54004 38.0498 6.36256 40.6363 6.36256C44.1503 6.36256 45.7483 8.33402 45.7483 11.1667V22.1106H40.829V13.1701Z" fill="#777777"/>
<path id="Vector_2" fill-rule="evenodd" clip-rule="evenodd" d="M14.1792 11.2298L24.8342 0.620703C28.3701 4.62583 28.223 10.7286 24.3898 14.5571V22.056H13.5034V22.0543C13.4713 22.0543 13.4396 22.0547 13.4079 22.0551C13.3763 22.0555 13.3446 22.056 13.3125 22.056C7.19523 22.056 2.23687 17.1189 2.23687 11.028C2.23687 10.0826 2.35682 9.16587 2.58151 8.28949C2.7893 7.08677 1.81959 5.15403 0.826233 3.88401C2.43115 4.06737 4.77602 3.94457 5.4957 3.21623C7.49931 1.22963 10.2632 0 13.3142 0C16.2301 0 18.8807 1.12534 20.8573 2.95885L21.0212 3.21285L13.5743 10.6276C13.4071 10.7942 13.4071 11.0633 13.5743 11.2298C13.6571 11.3123 13.7669 11.3543 13.8767 11.3543C13.9866 11.3543 14.0964 11.3123 14.1792 11.2298ZM7.25601 5.81972C7.4959 6.37315 8.04664 6.76003 8.6886 6.76003C9.55019 6.76003 10.2479 6.06364 10.2462 5.20744C10.2462 4.34956 9.5485 3.65483 8.68691 3.65483C8.39633 3.65483 8.12604 3.73557 7.89289 3.87351C7.89797 3.87351 7.90305 3.87266 7.9081 3.87183C7.91318 3.87098 7.91823 3.87014 7.92331 3.87014C8.38958 3.87014 8.768 4.24693 8.768 4.7112C8.768 5.17546 8.38958 5.55227 7.92331 5.55227C7.56855 5.55227 7.26614 5.33528 7.14111 5.02745C7.14111 5.03439 7.14021 5.04091 7.13935 5.04718C7.13854 5.05307 7.13775 5.05875 7.13775 5.06446C7.13437 5.10313 7.13267 5.14183 7.13098 5.18052C7.13267 5.40592 7.17828 5.62124 7.25601 5.81972Z" fill="#777777"/>
<path id="Vector_3" d="M112.569 11.0326L112.019 10.0467C112.274 9.95818 112.557 9.70871 112.557 9.24193C112.557 8.74297 112.217 8.34863 111.619 8.34863H110.27V11.0326H110.964V10.1312H111.32L111.773 11.0326H112.569ZM111.514 9.52762H110.964V8.95222H111.514C111.7 8.95222 111.849 9.05282 111.849 9.23791C111.849 9.42704 111.7 9.52762 111.514 9.52762Z" fill="#777777"/>
<path id="Vector_4" fill-rule="evenodd" clip-rule="evenodd" d="M113.52 7.49261C112.932 6.90721 112.137 6.58008 111.29 6.58008C110.442 6.58008 109.647 6.90721 109.059 7.49261C108.471 8.07799 108.143 8.87 108.143 9.71366C108.143 10.5573 108.471 11.3493 109.059 11.9347C109.647 12.5201 110.442 12.8472 111.29 12.8472C112.137 12.8472 112.932 12.5201 113.52 11.9347C114.108 11.3493 114.436 10.5573 114.436 9.71366C114.454 8.88723 114.125 8.09521 113.52 7.49261ZM108.938 9.73087C108.938 11.0222 109.993 12.0724 111.29 12.0724C112.586 12.0724 113.641 11.0222 113.641 9.73087C113.641 8.43957 112.586 7.38929 111.29 7.38929C109.993 7.38929 108.938 8.43957 108.938 9.73087Z" fill="#777777"/>
</g>
<defs>
<clipPath id="clip0_9_82">
<rect width="113.967" height="22.4939" fill="white" transform="translate(0.648438)"/>
</clipPath>
</defs>
</svg>
