<svg width="87" height="32" viewBox="0 0 87 32" fill="none" xmlns="http://www.w3.org/2000/svg">
<g id="Zip_Logo" clip-path="url(#clip0_9_77)">
<path id="Vector" d="M29.4964 9.69189L32.1997 31.6063H58.6472L55.9441 9.69189H29.4964Z" fill="#777777"/>
<path id="Vector_2" d="M37.0399 1.32318C38.7279 2.90313 38.9597 5.38787 37.5577 6.87284C36.1557 8.35781 33.6506 8.28093 31.9626 6.70097C30.2746 5.12102 30.0428 2.63628 31.4448 1.15131C32.847 -0.33383 35.3519 -0.25678 37.0399 1.32318Z" fill="#777777"/>
<path id="Vector_3" fill-rule="evenodd" clip-rule="evenodd" d="M86.3811 17.5812C85.7713 12.6551 81.8847 9.67 76.6029 9.69152H59.0121L61.7131 31.6047H69.6266L69.0849 27.2226H77.4598C84.053 27.2226 87.0692 23.1326 86.3811 17.5812ZM76.6063 21.0797L68.3324 21.0888L67.684 15.8297L76.0044 15.8366C77.962 15.8591 78.9628 16.9561 79.1238 18.4582C79.2235 19.4231 78.7792 21.0787 76.6063 21.0787V21.0797Z" fill="#777777"/>
<path id="Vector_4" d="M1.94727 25.4827L2.70223 31.6063H29.1291L28.2644 24.5933H15.9428L15.8352 23.7244L27.1843 15.8279L26.4261 9.69189H0L0.864768 16.7048H13.2068L13.3155 17.5816L1.94727 25.4827Z" fill="#777777"/>
</g>
<defs>
<clipPath id="clip0_9_77">
<rect width="86.6484" height="31.606" fill="white"/>
</clipPath>
</defs>
</svg>
